<svg version="1.1" viewBox="0.0 0.0 128.0 128.0" fill="none" stroke="none" stroke-linecap="square" stroke-miterlimit="10" xmlns:xlink="http://www.w3.org/1999/xlink" xmlns="http://www.w3.org/2000/svg"><clipPath id="p.0"><path d="m0 0l128.0 0l0 128.0l-128.0 0l0 -128.0z" clip-rule="nonzero"/></clipPath><g clip-path="url(#p.0)"><path fill="#000000" fill-opacity="0.0" d="m0 0l128.0 0l0 128.0l-128.0 0z" fill-rule="evenodd"/><path fill="#ffd966" d="m28.0 20.80315l62.3937 0l0 96.0l-62.3937 0z" fill-rule="evenodd"/><path fill="#ffcc33" d="m28.0 20.80315l9.601017 -9.606299l62.398983 0l-9.601013 9.606299z" fill-rule="evenodd"/><path fill="#f1c232" d="m90.3937 116.80315l9.6063 -9.506584l0 -96.09971l-9.6063 9.506585z" fill-rule="evenodd"/><path fill="#76b45a" d="m34.72441 14.062992l2.8740234 -2.8661413l62.38582 0l-2.8740234 2.8661413z" fill-rule="evenodd"/><path fill="#6aa84f" d="m97.13386 110.062996l2.8661423 -2.9081345l0 -95.95801l-2.8661423 2.9081306z" fill-rule="evenodd"/><path fill="#f1c232" d="m31.68504 42.37008l0 0c0 -4.322605 3.5041656 -7.826771 7.826771 -7.826771l0 0c2.0757904 0 4.066559 0.82460403 5.534363 2.292408c1.467804 1.467804 2.292408 3.4585724 2.292408 5.534363l0 0c0 4.322605 -3.5041618 7.826771 -7.826771 7.826771l0 0c-4.322605 0 -7.826771 -3.5041656 -7.826771 -7.826771z" fill-rule="evenodd"/><path fill="#f1c232" d="m62.12992 67.36089l0 0c0 -4.322609 3.5041656 -7.826771 7.8267746 -7.826771l0 0c2.0757828 0 4.066559 0.82460403 5.534363 2.292408c1.467804 1.467804 2.2924042 3.4585724 2.2924042 5.534363l0 0c0 4.322609 -3.5041656 7.8267746 -7.826767 7.8267746l0 0c-4.322609 0 -7.8267746 -3.5041656 -7.8267746 -7.8267746z" fill-rule="evenodd"/><path fill="#f1c232" d="m37.301838 59.249344l0 0c0 -4.322605 3.5041656 -7.826771 7.826771 -7.826771l0 0c2.0757904 0 4.066559 0.82460403 5.534363 2.292408c1.467804 1.467804 2.292408 3.4585724 2.292408 5.534363l0 0c0 4.322605 -3.5041656 7.8267746 -7.826771 7.8267746l0 0c-4.322605 0 -7.826771 -3.5041695 -7.826771 -7.8267746z" fill-rule="evenodd"/><path fill="#f1c232" d="m57.041996 84.068245l0 0c0 -4.322609 3.5041656 -7.8267746 7.826771 -7.8267746l0 0c2.0757904 0 4.066559 0.8246002 5.534363 2.2924042c1.467804 1.4678116 2.2924118 3.45858 2.2924118 5.5343704l0 0c0 4.3226013 -3.5041656 7.826767 -7.8267746 7.826767l0 0c-4.322605 0 -7.826771 -3.5041656 -7.826771 -7.826767z" fill-rule="evenodd"/><path fill="#f1c232" d="m64.85696 37.40551l0 0c0 -3.139759 2.5452805 -5.6850376 5.6850357 -5.6850376l0 0c1.5077667 0 2.9537811 0.59895897 4.0199356 1.6651096c1.0661469 1.0661507 1.6651077 2.512165 1.6651077 4.019928l0 0c0 3.1397629 -2.5452805 5.6850395 -5.6850433 5.6850395l0 0c-3.1397552 0 -5.6850357 -2.5452766 -5.6850357 -5.6850395z" fill-rule="evenodd"/><path fill="#f1c232" d="m57.040684 53.58399l0 0c0 -3.139759 2.5452766 -5.6850395 5.6850395 -5.6850395l0 0c1.5077667 0 2.9537735 0.5989609 4.019928 1.6651115c1.0661545 1.0661507 1.6651077 2.5121613 1.6651077 4.019928l0 0c0 3.1397629 -2.5452728 5.6850395 -5.6850357 5.6850395l0 0c-3.1397629 0 -5.6850395 -2.5452766 -5.6850395 -5.6850395z" fill-rule="evenodd"/><path fill="#f1c232" d="m76.98294 29.405512l0 0c0 -3.139761 2.5452805 -5.6850395 5.6850357 -5.6850395l0 0c1.5077667 0 2.9537811 0.59895706 4.0199356 1.6651096c1.0661469 1.0661526 1.6651077 2.5121632 1.6651077 4.01993l0 0c0 3.139761 -2.5452805 5.6850376 -5.6850433 5.6850376l0 0c-3.1397552 0 -5.6850357 -2.5452766 -5.6850357 -5.6850376z" fill-rule="evenodd"/><path fill="#f1c232" d="m31.408136 76.36089l0 0c0 -3.1397629 2.5452785 -5.6850433 5.6850376 -5.6850433l0 0c1.5077667 0 2.9537811 0.5989609 4.019932 1.6651154c1.0661507 1.0661469 1.6651077 2.5121613 1.6651077 4.019928l0 0c0 3.1397629 -2.5452766 5.6850357 -5.6850395 5.6850357l0 0c-3.139759 0 -5.6850376 -2.5452728 -5.6850376 -5.6850357z" fill-rule="evenodd"/><path fill="#f1c232" d="m40.69029 94.7664l0 0c0 -4.322609 3.5041656 -7.826767 7.826771 -7.826767l0 0c2.0757904 0 4.066559 0.8246002 5.534363 2.2924042c1.4678078 1.467804 2.2924118 3.4585724 2.2924118 5.534363l0 0c0 4.322609 -3.5041656 7.8267746 -7.8267746 7.8267746l0 0c-4.322605 0 -7.826771 -3.5041656 -7.826771 -7.8267746z" fill-rule="evenodd"/><path fill="#f1c232" d="m54.89895 107.456696l0 0c0 -4.322609 3.5041656 -7.8267746 7.8267746 -7.8267746l0 0c2.0757904 0 4.066559 0.82460785 5.534363 2.2924118c1.467804 1.467804 2.2924042 3.4585724 2.2924042 5.534363l0 0c0 4.3226013 -3.504158 7.826767 -7.826767 7.826767l0 0c-4.322609 0 -7.8267746 -3.5041656 -7.8267746 -7.826767z" fill-rule="evenodd"/><path fill="#f1c232" d="m71.05249 95.437004l0 0c0 -3.1397552 2.5452805 -5.6850357 5.6850433 -5.6850357l0 0c1.5077667 0 2.9537811 0.5989609 4.019928 1.6651077c1.0661545 1.0661545 1.6651077 2.512169 1.6651077 4.019928l0 0c0 3.1397629 -2.5452728 5.6850433 -5.6850357 5.6850433l0 0c-3.1397629 0 -5.6850433 -2.5452805 -5.6850433 -5.6850433z" fill-rule="evenodd"/><path fill="#f1c232" d="m45.195538 77.772964l0 0c0 -3.1397629 2.5452805 -5.6850357 5.6850395 -5.6850357l0 0c1.5077667 0 2.9537773 0.59895325 4.019932 1.6651077c1.0661507 1.0661545 1.6651077 2.5121613 1.6651077 4.019928l0 0c0 3.1397629 -2.5452805 5.6850433 -5.6850395 5.6850433l0 0c-3.139759 0 -5.6850395 -2.5452805 -5.6850395 -5.6850433z" fill-rule="evenodd"/><path fill="#f1c232" d="m49.586613 27.473753l0 0c0 -3.139761 2.5452805 -5.6850395 5.6850395 -5.6850395l0 0c1.5077667 0 2.9537811 0.59895897 4.019932 1.6651096c1.0661507 1.0661526 1.6651077 2.5121632 1.6651077 4.01993l0 0c0 3.139761 -2.5452766 5.6850414 -5.6850395 5.6850414l0 0c-3.139759 0 -5.6850395 -2.5452805 -5.6850395 -5.6850414z" fill-rule="evenodd"/><path fill="#f1c232" d="m33.82546 108.82284l0 0c0 -3.1397629 2.5452805 -5.6850433 5.6850395 -5.6850433l0 0c1.5077667 0 2.9537773 0.5989609 4.019932 1.6651077c1.0661507 1.0661545 1.6651077 2.512169 1.6651077 4.0199356l0 0c0 3.1397552 -2.5452766 5.6850357 -5.6850395 5.6850357l0 0c-3.139759 0 -5.6850395 -2.5452805 -5.6850395 -5.6850357z" fill-rule="evenodd"/><path fill="#f1c232" d="m76.98294 108.82284l0 0c0 -3.1397629 2.5452805 -5.6850433 5.6850357 -5.6850433l0 0c1.5077667 0 2.9537811 0.5989609 4.0199356 1.6651077c1.0661469 1.0661545 1.6651077 2.512169 1.6651077 4.0199356l0 0c0 3.1397552 -2.5452805 5.6850357 -5.6850433 5.6850357l0 0c-3.1397552 0 -5.6850357 -2.5452805 -5.6850357 -5.6850357z" fill-rule="evenodd"/><path fill="#f1c232" d="m75.85827 81.09055l0 0c0 -3.1397629 2.5452805 -5.6850433 5.6850357 -5.6850433l0 0c1.5077667 0 2.9537811 0.5989609 4.0199356 1.6651077c1.0661469 1.0661545 1.6651077 2.512169 1.6651077 4.0199356l0 0c0 3.1397552 -2.5452805 5.6850357 -5.6850433 5.6850357l0 0c-3.1397552 0 -5.6850357 -2.5452805 -5.6850357 -5.6850357z" fill-rule="evenodd"/><path fill="#f1c232" d="m73.715225 51.312336l0 0c0 -4.322605 3.5041656 -7.826771 7.826767 -7.826771l0 0c2.0757904 0 4.066559 0.82460403 5.534363 2.292408c1.467804 1.467804 2.2924118 3.4585724 2.2924118 5.534363l0 0c0 4.322605 -3.5041656 7.826771 -7.8267746 7.826771l0 0c-4.3226013 0 -7.826767 -3.5041656 -7.826767 -7.826771z" fill-rule="evenodd"/><path fill="#f1c232" d="m50.412075 40.52887l0 0c0 -3.139759 2.5452766 -5.6850357 5.6850395 -5.6850357l0 0c1.5077629 0 2.9537773 0.59895706 4.019928 1.6651077c1.0661507 1.0661507 1.6651115 2.512165 1.6651115 4.019928l0 0c0 3.1397629 -2.5452805 5.6850395 -5.6850395 5.6850395l0 0c-3.1397629 0 -5.6850395 -2.5452766 -5.6850395 -5.6850395z" fill-rule="evenodd"/><path fill="#f1c232" d="m31.408136 27.671917l0 0c0 -3.139761 2.5452785 -5.6850395 5.6850376 -5.6850395l0 0c1.5077667 0 2.9537811 0.59895706 4.019932 1.6651077c1.0661507 1.0661526 1.6651077 2.512165 1.6651077 4.019932l0 0c0 3.139759 -2.5452766 5.6850395 -5.6850395 5.6850395l0 0c-3.139759 0 -5.6850376 -2.5452805 -5.6850376 -5.6850395z" fill-rule="evenodd"/></g></svg>